<?xml version="1.0" encoding="UTF-8"?>
<svg id="Ebene_1" xmlns="http://www.w3.org/2000/svg" version="1.1" viewBox="0 0 345.42 384.13">
  <!-- Generator: Adobe Illustrator 29.0.1, SVG Export Plug-In . SVG Version: 2.1.0 Build 192)  -->
  <defs>
    <style>
      .st0 {
        fill: #fac950;
      }

      .st1 {
        fill: #fbbcb8;
      }

      .st2 {
        fill: #fdfdfe;
      }

      .st3 {
        fill: #bb99f3;
      }

      .st4 {
        fill: #062b75;
      }

      .st5 {
        fill: #fb7c9f;
      }
    </style>
  </defs>
  <path class="st4" d="M75.93,384.13L2.13,287.3c-3.59-5.36-2.33-7.8,1.45-11.9,2.52-2.73,39.69-30.48,42.17-31.33,8.84-3.01,10.53,6.15,12.52,5.78,1.04-.19,12.59-12.96,15.06-14.95,33.6-27.13,53.87-16.29,88.11-4.17,28.5,10.09,70.98-9.19,74.24,34.89l74.28-32.58c26.06-8.47,46.87,22.91,28.43,43.43-6.99,7.78-98.96,50.84-112.65,54.6-31.21,8.55-62.64,1.66-93.97,4.28-18.26,1.53,2.06,4.15-6.05,15.7l-43.81,33.07h-6ZM161.43,320.38c24.29-.54,43.21,1.9,66.93-6.19,17.89-6.1,80.95-35.32,95.46-45.54,11.82-8.32,5.58-23.71-8.51-21.26-26.88,4.68-73.5,36.87-101.98,45.01-7.9,1.81-47.95,2.32-56.04.99-8.9-1.46-9.45-12.07-3.17-14.44,13.61-5.15,76.69,11.65,64.68-20.81-4.82-13.01-36.67-7.2-49.9-9.35-14.71-2.4-23.67-11.24-38.22-13.9-20.32-3.72-35.6,1.26-51.01,14.62-2.54,2.2-12.41,11.34-11.87,14.07,7.89,7.05,39.43,57.15,44.89,59.45,2.28.96,12.31-2.46,16.1-2.66,10.79-.59,21.83.26,32.65.02ZM48.08,261.95l-29.06,22.63c8.7,7.91,57.26,81.09,62.34,80.68,1.75-.14,27.59-20.07,27.45-21.82-.53-6.47-55.32-69.35-60.73-81.49Z"/>
  <path class="st4" d="M217.68.13c.33.03,1.8.59,3,.75l2.25.75c55.15,9.59,83.24,70.32,55.89,119.26-5.96,10.67-20.98,22.33-23.12,33.12-1.24,6.21,1.84,2.12,5.14,6.58,7.06,9.53-5.71,11.9-6.3,12.9-2.71,4.62,2.83,20.38-7.3,32.82-13.68,16.8-73.17,17.65-82.2-8.42-2.71-7.83-.72-20.55-2.08-24-.55-1.38-8.25-1.12-8.31-8.42s7.5-5.87,7.2-10.12c-.66-9.52-14.89-21.41-20.22-29.3C107.66,75.79,139.3,7.89,198.93.88l4.5-.75c4.7.29,9.57-.39,14.25,0ZM143.43,86.38c1.89,29.41,17.34,32.48,28.35,53.03,2.02,3.78,5.45,17.6,6.26,18.12,1.29.82,26.57.11,30.64.11s29.41.79,30.66-.09c.85-.6,4.35-15.03,6.98-19.64,11.23-19.64,25.68-23.55,27.6-51.52,2.62-38.22-26.52-71.32-65.25-71.25-38.94.07-67.71,32.91-65.25,71.25Z"/>
  <polygon class="st3" points="203.43 .13 198.93 .88 198.93 .13 203.43 .13"/>
  <path class="st0" d="M309.44,92.12c-2.88-2.9-2.71-8.78.44-11.41,3.66-3.05,38.95-6.45,31.45,9.7-2.88,6.19-28.04,5.59-31.89,1.71Z"/>
  <path class="st0" d="M80.98,79.06c4.82-1.07,25.92-1.53,28.13,3.76,7.01,16.78-31.09,13.84-33.54,7.29-1.8-4.83.23-9.9,5.4-11.05Z"/>
  <path class="st0" d="M329.23,24.31c5.49-.94,10.2,1.64,10,7.67-.22,6.5-30.97,26.49-32.05,9.67-.39-6.04,17.28-16.53,22.05-17.34Z"/>
  <path class="st0" d="M83.22,24.29c5.96-1.41,34.05,12.01,24.52,22.26-7.93,8.53-44.05-17.65-24.52-22.26Z"/>
  <path class="st0" d="M99.73,124.81c6.06-1.14,10.62,2.01,9.98,8.44-.58,5.76-30.66,25.77-31.58,8.99-.33-6.11,16.94-16.55,21.6-17.43Z"/>
  <path class="st0" d="M312.72,124.79c5.49-1.31,26.45,10.21,26.49,16.75.13,21.6-48.58-11.48-26.49-16.75Z"/>
  <path class="st3" d="M222.93,1.63l-2.25-.75c1.3.17,2.13.73,2.25.75Z"/>
  <path class="st1" d="M130.68,234.88c14.55,2.66,23.52,11.51,38.22,13.9,13.23,2.15,45.08-3.66,49.9,9.35,12.02,32.47-51.07,15.66-64.68,20.81-6.28,2.38-5.73,12.98,3.17,14.44,8.08,1.33,48.14.82,56.04-.99,28.48-8.14,75.1-40.33,101.98-45.01,14.1-2.46,20.33,12.93,8.51,21.26-14.51,10.22-77.57,39.43-95.46,45.54-23.72,8.09-42.64,5.65-66.93,6.19-26.82-19.47-39.42-53.11-30.75-85.5Z"/>
  <path class="st5" d="M130.68,234.88c-8.67,32.39,3.93,66.03,30.75,85.5-10.82.24-21.86-.61-32.65-.02-3.79.21-13.82,3.62-16.1,2.66-5.46-2.3-37-52.4-44.89-59.45-.54-2.73,9.33-11.86,11.87-14.07,15.41-13.36,30.68-18.34,51.01-14.62Z"/>
  <path class="st0" d="M48.08,261.95c5.41,12.15,60.2,75.03,60.73,81.49.14,1.75-25.7,21.68-27.45,21.82-5.08.41-53.64-72.76-62.34-80.68l29.06-22.63Z"/>
  <path class="st3" d="M208.68,15.13c-.55,2.8.73,20.25,0,21-1.69,1.76-15.05-.9-15.05,13.87,0,14.79,13.21,12.08,15.05,13.87.81.78-.06,19.39,0,22.5-3.2.06-21.69-.78-22.5,0-1.61,1.54.06,16.2-14.56,15.66-13.5-.49-12.09-14.57-13.19-15.67-.53-.53-12.88.4-15,0-2.46-38.34,26.31-71.18,65.25-71.25Z"/>
  <path class="st2" d="M273.93,86.38c-2.13-.39-14.47.53-15,0-1.75-1.71.65-15.06-13.87-15.07-14.69,0-12.18,13.45-13.87,15.07-.81.78-19.3-.06-22.5,0-.06-3.11.81-21.72,0-22.5-1.85-1.79-15.05.92-15.05-13.87,0-14.77,13.36-12.11,15.05-13.87.73-.76-.55-18.21,0-21,38.73-.07,67.87,33.03,65.25,71.25Z"/>
  <path class="st5" d="M208.68,86.38c3.2-.06,21.69.78,22.5,0,1.69-1.62-.82-15.08,13.87-15.07,14.52,0,12.12,13.36,13.87,15.07.54.52,12.87-.4,15,0-1.92,27.97-16.38,31.88-27.6,51.52-2.63,4.6-6.13,19.04-6.98,19.64-1.26.88-26.67.09-30.66.09.56-2.8-.74-20.25,0-21,1.52-1.55,15.23.29,15.07-13.87-.15-13.39-14.02-12.63-15.02-13.92-.69-.89.01-19.38-.05-22.46Z"/>
  <path class="st0" d="M143.43,86.38c2.13.4,14.47-.54,15,0,1.1,1.1-.32,15.17,13.19,15.67,14.62.54,12.95-14.12,14.56-15.66.81-.78,19.3.06,22.5,0,.06,3.08-.64,21.57.05,22.46,1,1.29,14.86.52,15.02,13.92.16,14.16-13.54,12.32-15.07,13.87-.74.75.56,18.21,0,21-4.07,0-29.35.72-30.64-.11-.81-.52-4.24-14.34-6.26-18.12-11.01-20.55-26.46-23.61-28.35-53.03Z"/>
</svg>