<?xml version="1.0" encoding="UTF-8"?>
<svg id="Ebene_1" xmlns="http://www.w3.org/2000/svg" version="1.1" viewBox="0 0 384 384">
  <!-- Generator: Adobe Illustrator 29.0.1, SVG Export Plug-In . SVG Version: 2.1.0 Build 192)  -->
  <defs>
    <style>
      .st0 {
        fill: #072c75;
      }

      .st1 {
        fill: #8093b9;
      }

      .st2 {
        fill: #5971a3;
      }

      .st3 {
        fill: #788cb4;
      }

      .st4 {
        fill: #8fb507;
      }

      .st5 {
        fill: #90a0c1;
      }

      .st6 {
        fill: #fbc950;
      }

      .st7 {
        fill: #b9c4d8;
      }

      .st8 {
        fill: #afd752;
      }

      .st9 {
        fill: #c7cfdf;
      }

      .st10 {
        fill: #fb8e02;
      }

      .st11 {
        fill: #a0aeca;
      }

      .st12 {
        fill: #b2bed4;
      }

      .st13 {
        fill: #224385;
      }

      .st14 {
        fill: #677eab;
      }

      .st15 {
        fill: #435f97;
      }

      .st16 {
        fill: #082c75;
      }

      .st17 {
        fill: #466199;
      }

      .st18 {
        fill: #2f4e8c;
      }
    </style>
  </defs>
  <path class="st0" d="M206.6,383.25c-.74.04-1.5-.02-2.25,0-1,.02-2-.02-2.99,0-1.21.02-2.95-.46-3.74.75h-10.48c-.98-1.27-3.09-.73-4.49-.75-1-.01-2,0-2.99,0-1.24-.01-2.5.07-3.74,0-21.46-1.14-42.22-7.35-61.88-15.59-3.22-1.35-19.72-10.7-20.89-10.63-2.81.17-6.47,16.51-16.42,9.77-2.62-1.78-23.29-52.32-24.87-58.22s-2.95-11.47,5.4-12.92c6.59-1.14,59.96-2.58,64.97-1.32,12.44,3.12-1.57,18.86-.96,20.03,1.19,2.29,30.58,12.92,35.02,14.02,107.2,26.55,200.89-71.18,169.7-177.18-1.84-6.26-11.12-24.9-10.37-29.03.58-3.15,2.86-3.97,5.01-5.51,2.98-2.14,32.28-16.9,34.43-16.85,7.48.16,14.97,22.05,17.17,28.36,40.9,117.41-40.1,248.12-165.63,255.08ZM82.35,344.33c.54.27,2.95-4,4.67-4.67,6.35-2.48,24.85,10.5,32.24,13.78,137.66,61.13,282.45-65.08,242.06-209.88-.91-3.27-7.66-23.44-9.15-24.56-2.16-1.61-18.74,7.66-19.02,8.7-.45,1.69,9.59,26.98,10.81,33.21,24.08,123.16-97.1,223.52-213.48,174.55-4.54-1.91-24.26-11.56-26.12-15.05-2.75-5.14.85-10.19.42-10.52-1.38-1.09-33.88-.44-35.18.75s11.13,32.87,12.74,33.68Z"/>
  <path class="st13" d="M.75,198.36h-.75v-11.23h.75c-.08,3.71-.1,7.52,0,11.23Z"/>
  <path class="st2" d="M.75,202.85h-.75v-4.49h.75c.04,1.49-.07,3,0,4.49Z"/>
  <path class="st18" d="M187.13,384h-4.49v-.75c1.41.02,3.51-.52,4.49.75Z"/>
  <path class="st15" d="M.75,187.13h-.75v-3.74h.75c-.05,1.24.03,2.5,0,3.74Z"/>
  <path class="st11" d="M179.65,383.25v.75h-3.74v-.75c1.24.07,2.5-.01,3.74,0Z"/>
  <path class="st17" d="M201.36,383.25v.75h-3.74c.79-1.21,2.53-.73,3.74-.75Z"/>
  <path class="st12" d="M.75,180.4h-.75v-2.99h.75c-.07.99.05,2,0,2.99Z"/>
  <path class="st3" d="M.75,183.39h-.75v-2.99h.75c-.05.99.04,2,0,2.99Z"/>
  <path class="st14" d="M182.64,383.25v.75h-2.99v-.75c1,0,2-.01,2.99,0Z"/>
  <path class="st1" d="M204.35,383.25v.75h-2.99v-.75c1-.02,2,.02,2.99,0Z"/>
  <path class="st5" d="M.75,205.1h-.75v-2.25h.75c.04.75-.04,1.5,0,2.25Z"/>
  <path class="st9" d="M.75,207.35h-.75v-2.25h.75c.04.74-.05,1.5,0,2.25Z"/>
  <path class="st7" d="M206.6,383.25v.75h-2.25v-.75c.75-.02,1.5.04,2.25,0Z"/>
  <path class="st0" d="M.75,177.4C9.65,44.53,147.66-33.87,269.22,17.09c3.22,1.35,19.73,10.7,20.9,10.63,2.91-.17,9.66-22.95,19.9-4.26,2.88,5.26,23.18,55.3,23.03,58.44s-3.18,6.48-6.36,7.13c-6.71,1.38-57.82,2.65-64.25,1.47-15.07-2.77.39-18.52-.45-20.12-1.24-2.37-31.07-13.08-35.61-14.18C119.8,30.39,26.82,126.8,56.95,232.36c1.82,6.38,10.77,24.26,11,27.93.12,1.93-1.09,4.53-2.34,5.92s-32.26,17.49-34.74,18.07c-8.94,2.11-11.43-7.81-14.52-14.32-8.67-18.25-14.22-42.49-15.59-62.63-.05-.74.04-1.5,0-2.25s.04-1.5,0-2.25c-.07-1.49.04-3,0-4.49-.1-3.71-.08-7.51,0-11.23.03-1.25-.05-2.5,0-3.74.04-.99-.05-2,0-2.99s-.07-2,0-2.99ZM300.9,40.42c-.54-.27-2.95,4-4.67,4.67-6.27,2.45-26.19-11.26-33.74-14.53C138.44-23.13,3.81,75.22,15.74,209.2c.74,8.36,9.93,52.51,15.33,56.54,2.16,1.61,18.75-7.66,19.02-8.7.37-1.39-8.32-22.36-9.44-27.1C11.18,105.08,133.78-1.04,252.76,49.28c4.5,1.9,24.27,11.62,26.12,15.05,2.77,5.12-.84,10.19-.42,10.52,1.38,1.09,33.84.4,35.18-.75s-11.13-32.87-12.74-33.68Z"/>
  <path class="st16" d="M218.57,148.96h31.81c3.48,0,6.78,8.49,4,11.49-32.45,39.72-59.23,90.06-92.1,128.72-6.39,7.51-12.23,14.11-17.13.15l15.78-91.71h-28.07c-4.15,0-4.88-6.88-4.67-9.91.95-13.35,18.77-76.07,24.14-90.39,2.65-7.08,2.13-8.03,10.45-9.01,13.32-1.57,49.44-1.43,62.93-.01,5.78.61,11.11,1.64,10.52,9.02-1.06,13.26-15.91,37.02-17.66,51.64ZM184.89,104.05c-2.88.07-17.81-.51-18.81.44-3.44,3.25-16.56,68.81-20.86,78.16h26.57c1.21,0,4.7,3.07,5.2,4.53,3.42,10.03-11.1,56.04-10.8,69.57,16.53-21.09,31.69-43.25,47.15-65.12,6.5-9.19,13.66-18.02,19.46-27.7h-27.32c-2.71,0-5.59-5.52-5.46-8.39.32-6.92,19.89-49.74,17.8-51.49-1.26-1.06-28.74-.1-32.93,0Z"/>
  <path class="st4" d="M82.35,344.33c-1.61-.81-14.07-32.46-12.74-33.68s33.8-1.84,35.18-.75c.43.34-3.17,5.38-.42,10.52,1.86,3.49,21.59,13.14,26.12,15.05,116.38,48.96,237.56-51.4,213.48-174.55-1.22-6.24-11.26-31.53-10.81-33.21.27-1.04,16.86-10.31,19.02-8.7,1.49,1.11,8.23,21.28,9.15,24.56,40.38,144.8-104.41,271-242.06,209.88-7.39-3.28-25.89-16.26-32.24-13.78-1.72.67-4.14,4.94-4.67,4.67Z"/>
  <path class="st8" d="M300.9,40.42c1.61.81,14.1,32.5,12.74,33.68s-33.79,1.84-35.18.75c-.43-.34,3.19-5.4.42-10.52-1.86-3.43-21.62-13.14-26.12-15.05C133.78-1.04,11.18,105.08,40.65,229.95c1.12,4.73,9.81,25.71,9.44,27.1-.27,1.04-16.86,10.31-19.02,8.7-5.4-4.03-14.59-48.19-15.33-56.54C3.81,75.22,138.44-23.13,262.49,30.57c7.55,3.27,27.47,16.98,33.74,14.53,1.72-.67,4.14-4.94,4.67-4.67Z"/>
  <path class="st10" d="M184.89,104.05c-5.14,32.36,5.07,64.69,28.44,87.58-15.46,21.87-30.62,44.03-47.15,65.12-.3-13.54,14.23-59.55,10.8-69.57-.5-1.46-3.99-4.53-5.2-4.53h-26.57c4.31-9.35,17.42-74.91,20.86-78.16,1-.94,15.93-.37,18.81-.44Z"/>
  <path class="st6" d="M184.89,104.05c4.19-.1,31.67-1.05,32.93,0,2.09,1.75-17.48,44.57-17.8,51.49-.13,2.87,2.74,8.39,5.46,8.39h27.32c-5.81,9.68-12.96,18.5-19.46,27.7-23.38-22.89-33.59-55.22-28.44-87.58Z"/>
</svg>