<svg id="Layer_1" viewBox="0 0 512 512" xmlns="http://www.w3.org/2000/svg" data-name="Layer 1"><path d="m34.432 37.535h342.1a24.656 24.656 0 0 1 24.6 24.6v425.265a24.656 24.656 0 0 1 -24.6 24.6h-342.1a24.676 24.676 0 0 1 -24.6-24.6v-425.269a24.676 24.676 0 0 1 24.6-24.6z" fill="#fea832" fill-rule="evenodd"/><path d="m54.423 68.921h302.118a13.246 13.246 0 0 1 13.2 13.2v385.291a13.221 13.221 0 0 1 -13.2 13.173h-302.118a13.2 13.2 0 0 1 -13.172-13.173v-385.289a13.221 13.221 0 0 1 13.172-13.2z" fill="#d5e3f2" fill-rule="evenodd"/><path d="m134.331 24.771h46.769c0-.117-.029-.233-.029-.35a24.407 24.407 0 1 1 48.814 0v.35h46.773a6.107 6.107 0 0 1 6.091 6.091v48.7h-154.538v-48.7a6.132 6.132 0 0 1 6.12-6.091z" fill="#4d6c8f" fill-rule="evenodd"/><path d="m205.438 31.619a7.2 7.2 0 1 1 0-14.4h.117a7.2 7.2 0 0 1 0 14.4z" fill="#d5e3f2"/><path d="m75.318 327.559a7.2 7.2 0 0 1 0-14.4h14.921a7.2 7.2 0 0 1 0 14.4zm37.477 0a7.2 7.2 0 0 1 0-14.4h222.88a7.2 7.2 0 0 1 0 14.4zm-37.477-39.517a7.2 7.2 0 0 1 0-14.4h14.921a7.2 7.2 0 1 1 0 14.4zm37.477 0a7.2 7.2 0 0 1 0-14.4h222.88a7.2 7.2 0 0 1 0 14.4zm-37.477 79a7.2 7.2 0 1 1 0-14.4h14.921a7.2 7.2 0 0 1 0 14.4zm37.477 0a7.2 7.2 0 1 1 0-14.4h222.88a7.2 7.2 0 0 1 0 14.4zm-37.477 39.492a7.2 7.2 0 1 1 0-14.4h14.921a7.2 7.2 0 0 1 0 14.4zm37.477 0a7.2 7.2 0 0 1 0-14.4h222.88a7.2 7.2 0 0 1 0 14.4zm-37.477 39.488a7.184 7.184 0 1 1 0-14.367h14.921a7.184 7.184 0 1 1 0 14.367zm37.477 0a7.184 7.184 0 1 1 0-14.367h222.88a7.184 7.184 0 1 1 0 14.367z" fill="#4d6c8f"/><path d="m384.343 271.373 12.618-12.619a61.655 61.655 0 0 1 87.194 87.194l-99.812 99.841-99.843-99.841a61.655 61.655 0 1 1 87.2-87.194z" fill="#fb4455" fill-rule="evenodd"/><path d="m305.017 338.079a7.2 7.2 0 1 1 0-14.4h32.115l9.238-19.079a7.179 7.179 0 0 1 9.588-3.352 7.092 7.092 0 0 1 3.526 3.73l15.358 32.115 16.2-38.526a7.175 7.175 0 0 1 13.318.262c3.352 8.831 6.761 17.457 10.375 26.141q2.492 5.945 5.129 11.89l4.255-9.034a7.266 7.266 0 0 1 6.5-4.138h33.018a7.2 7.2 0 1 1 0 14.4h-28.47l-8.918 18.855a7.192 7.192 0 0 1 -13 .029c-4.255-9-8.131-17.747-11.774-26.49-1.369-3.322-2.739-6.645-4.08-10.025l-15.533 36.894a7.171 7.171 0 0 1 -13.084.321l-15.97-33.4-4.488 9.267a7.191 7.191 0 0 1 -6.674 4.546z" fill="#d5e3f2"/><path d="m205.5 247.738a70.728 70.728 0 1 0 -70.758-70.728 70.855 70.855 0 0 0 70.758 70.728z" fill="#2eb851" fill-rule="evenodd"/><path d="m235.4 147.11a7.192 7.192 0 0 1 10.171 10.171l-49.633 49.629a7.159 7.159 0 0 1 -10.171 0l-20.367-20.341a7.2 7.2 0 0 1 10.2-10.169l15.241 15.241z" fill="#d5e3f2"/><g fill-rule="evenodd"><path d="m264.83 64.987h-136.619v14.571h154.542v-48.7a6.107 6.107 0 0 0 -6.091-6.091h-11.832z" fill="#3b5c82"/><path d="m197.278 106.748a70.739 70.739 0 0 1 0 140.524 69.326 69.326 0 0 0 8.219.466 70.728 70.728 0 1 0 0-141.456 69.115 69.115 0 0 0 -8.219.466z" fill="#1ca63e"/><path d="m468.855 345.948-67.727 67.726-24.45 24.479 7.665 7.636 16.785-16.815 83.027-83.026a61.6 61.6 0 0 0 -51.232-104.709 61.577 61.577 0 0 1 35.932 104.709z" fill="#e82e41"/><path d="m369.742 270.673 6.936-6.936-4.983-4.983c-.641-.641-1.282-1.282-1.953-1.865a61.592 61.592 0 0 0 -49.279-15.65 61.342 61.342 0 0 1 35.937 17.515l12.648 12.619z" fill="#e82e41"/><path d="m354.792 68.921v177.855a60.9 60.9 0 0 1 14.95 10.113v-174.766a13.246 13.246 0 0 0 -13.2-13.2z" fill="#b7cfe8"/><path d="m369.742 431.189-14.95-14.95v64.346h1.749a13.221 13.221 0 0 0 13.2-13.173z" fill="#b7cfe8"/><path d="m369.742 431.189v36.223a13.221 13.221 0 0 1 -13.2 13.173h-1.749v6.815a24.676 24.676 0 0 1 -24.593 24.6h46.336a24.656 24.656 0 0 0 24.6-24.6v-58.43l-16.785 16.815-7.665-7.636z" fill="#ed9e00"/><path d="m371.7 258.754 4.983 4.983 7.665 7.636 12.618-12.619c1.341-1.341 2.739-2.623 4.167-3.818v-192.805a24.656 24.656 0 0 0 -24.6-24.6h-46.333a24.676 24.676 0 0 1 24.6 24.6v6.79h1.749a13.246 13.246 0 0 1 13.2 13.2v174.768c.671.583 1.312 1.224 1.953 1.865z" fill="#ed9e00"/></g></svg>