<?xml version="1.0" encoding="UTF-8"?>
<svg id="Ebene_1" xmlns="http://www.w3.org/2000/svg" version="1.1" viewBox="0 0 64 64">
  <!-- Generator: Adobe Illustrator 29.0.1, SVG Export Plug-In . SVG Version: 2.1.0 Build 192)  -->
  <defs>
    <style>
      .st0 {
        fill: #fff;
      }

      .st1 {
        fill: #6200ff;
      }
    </style>
  </defs>
  <rect class="st1" width="64" height="64"/>
  <g>
    <path class="st0" d="M18.28,35.47c0,1.37-.17,2.61-.51,3.72-.34,1.11-.85,2.06-1.53,2.85-.68.79-1.53,1.4-2.55,1.83-1.02.43-2.21.64-3.57.64-.62,0-1.23-.04-1.83-.11-.6-.07-1.23-.19-1.9-.35.04-.49.09-.99.13-1.48s.09-.99.14-1.48c.03-.27.14-.49.32-.65.18-.16.44-.25.78-.25.19,0,.44.03.73.1.3.07.67.1,1.1.1.61,0,1.13-.08,1.58-.25.45-.17.83-.44,1.13-.83s.53-.88.68-1.49.23-1.36.23-2.23v-15.82h5.06v15.7Z"/>
    <path class="st0" d="M46.81,31.99c0,1.79-.3,3.45-.9,4.97-.6,1.53-1.45,2.85-2.55,3.96-1.1,1.11-2.41,1.99-3.95,2.62s-3.25.95-5.13.95-3.59-.32-5.13-.95c-1.54-.63-2.86-1.51-3.96-2.62-1.1-1.11-1.95-2.43-2.56-3.96-.6-1.53-.9-3.19-.9-4.97s.3-3.44.9-4.97c.6-1.52,1.45-2.84,2.56-3.95,1.1-1.11,2.42-1.99,3.96-2.62,1.54-.63,3.25-.95,5.13-.95s3.59.32,5.13.95c1.54.64,2.86,1.51,3.95,2.63s1.94,2.44,2.55,3.96c.6,1.52.9,3.17.9,4.95ZM41.63,31.99c0-1.28-.17-2.43-.51-3.45-.34-1.02-.82-1.88-1.46-2.6s-1.4-1.26-2.31-1.64-1.93-.57-3.08-.57-2.17.19-3.09.57c-.91.38-1.68.92-2.32,1.64s-1.12,1.58-1.46,2.6c-.34,1.02-.51,2.17-.51,3.45s.17,2.45.51,3.47.82,1.88,1.46,2.59c.63.71,1.41,1.25,2.32,1.63.91.38,1.94.57,3.09.57s2.17-.19,3.08-.57,1.67-.92,2.31-1.63c.63-.71,1.12-1.57,1.46-2.59s.51-2.17.51-3.47Z"/>
    <path class="st0" d="M55.61,44.23h-5.09v-24.47h5.09v24.47Z"/>
  </g>
</svg>