<?xml version="1.0" encoding="UTF-8"?>
<svg id="Ebene_1" xmlns="http://www.w3.org/2000/svg" version="1.1" viewBox="0 0 594.45 600.36">
  <!-- Generator: Adobe Illustrator 29.0.1, SVG Export Plug-In . SVG Version: 2.1.0 Build 192)  -->
  <defs>
    <style>
      .st0 {
        fill: #da4b85;
      }

      .st1 {
        fill: #b0d852;
      }

      .st2 {
        fill: #90b606;
      }

      .st3 {
        fill: #fc7c9f;
      }

      .st4 {
        fill: #fcca50;
      }

      .st5 {
        fill: #052a75;
      }

      .st6 {
        fill: #fcca51;
      }

      .st7 {
        fill: #edeef1;
      }

      .st8 {
        fill: #bb99f3;
      }

      .st9 {
        fill: #fcdfbd;
      }

      .st10 {
        fill: #fbdfbd;
      }

      .st11 {
        fill: #f6af73;
      }

      .st12 {
        fill: #fb7c9f;
      }
    </style>
  </defs>
  <path class="st5" d="M462.1,381.34c11.17,37.55,68.34,52.73,53.96,99.21-2.82,9.13-18.13,19.25-18.71,23.02-.35,2.29,8.35,19.2,8.87,27.61,2.14,34.52-23.51,59.99-56.81,63.84-64.05,7.41-237.31,6.82-302.05.03-35.57-3.73-62.2-28.6-58.84-65.99.69-7.63,8.98-23.03,8.61-25.49-.58-3.77-15.9-13.9-18.71-23.02-14.37-46.49,42.75-61.61,53.96-99.21C80.09,374.22,26.61,345.61.04,298.7c18.85-41.58,64.87-66.65,106.71-81.08-17.5-22.18-36.15-106.13-20.99-127.89,14.3-20.54,112.22-.26,131.38,17.51,14.34-42.36,38.67-84.77,79.11-106.71,41.84,18.87,66.29,64.91,81.08,106.71,22.18-17.5,106.13-36.15,127.89-20.99,20.36,14.18.24,112.33-17.51,131.38,41.84,14.43,87.86,39.51,106.71,81.08-26.5,47.02-80.04,75.68-132.32,82.64Z"/>
  <path class="st6" d="M6.24,168.05c74.69,8.18,76.82,66.06-1.51,19.3l-4.73-8.98,6.24-10.32Z"/>
  <path class="st4" d="M577.66,168.23c14.62-1.37,21.35,5.08,13.44,18.15-14.34,6.63-69,41.4-57.01,1.01,1.41-1.92,40.87-18.91,43.57-19.16Z"/>
  <path class="st4" d="M172.41,3.38c17.94-18.49,36.13,44.35,33.1,55.13-20.92,25.84-39.84-48.17-33.1-55.13Z"/>
  <path class="st4" d="M422.05,3.38c6.75,6.95-12.17,80.97-33.1,55.13-3.04-10.78,15.16-73.62,33.1-55.13Z"/>
  <path class="st8" d="M343.68,571.73c-7.66-1.84-7.06-29.31,0-32.51,16.27-1.61,60.57,2.21,60.29-17.17l-8.58-10.24-198.16.49-6.73,9.76c-2.83,24.17,56.98,10.38,62.61,17.2l-2.32,32.48h-110.3c-26.54,0-45.24-50.85-4.76-69.78,55.05-25.74,169.77-31.91,229.74-25.16,20.9,2.35,104.95,24.32,113.35,42.24,32.69,69.72-100.56,53.49-135.14,52.7Z"/>
  <path class="st1" d="M427.27,362.74c.54,1.72,1.22,4.27.11,5.08-6.19,4.51-29.09,15.82-34.94,11.18-43.54-77.39-36.14-1.49-37.15,37.15-16.53,6.95-42.65-10.96-55.89-22.55-20.15-17.64-34.34-42.1-40.58-68.09-2.9-12.08-7.95-33.22,1.26-41.72,6.41-1.18,59.73-6.91,65.78-6.35,3.32.3,60.64,18.24,63.57,19.82,19.22,10.36,28.01,46.49,37.85,65.49Z"/>
  <path class="st2" d="M260.08,283.78c-4.86,60.47,34.33,120.76,95.21,132.36-.33,12.34.24,24.81,0,37.15h-116.11v-96.37c0-5.61-12.18-14.51-18.57-9.31-2.83,1.33-15.56,26-18.58,31.37-.97,1.52-2.49,3.67-3.82,3.34-7.44-1.85-30.81-12.14-31.01-19.6,32.45-62.67,14.41-64.52,92.89-78.95Z"/>
  <path class="st9" d="M294.42,149.6c65.19-3.4,65.21,109.54,3.76,110.72-61.11,1.17-64.22-107.56-3.76-110.72Z"/>
  <path class="st3" d="M197.38,123.55c-.19,5.38-2.73,11.18-7.62,17.4-6.92,24.35-9.71,49.57-8.37,75.65,2.29,13.4-17.7,25.69-28.13,23.05-35.52-35.72-51.83-80.18-48.43-130.87,29.47-10.67,65.74,1.82,92.55,14.76Z"/>
  <path class="st3" d="M441.21,239.66c-9.71,3.35-30.56-10.06-28.13-23.05,1.34-26.08-1.46-51.3-8.37-75.65-4.89-6.23-7.43-12.03-7.62-17.4,26.74-12.98,63.16-25.39,92.55-14.76,3.99,49.48-13.92,96.13-48.43,130.87Z"/>
  <path class="st0" d="M197.38,123.55c16.34,7.88,31.74,17.07,43.43,31.32-20.09,34.03-17.18,76.04,5.32,107.98-46.28,15.99-59.61,10.25-92.87-23.19,3.04-3.61,21.3-12.04,22.09-13.79,4.94-11.06-5.5-83.56,22.04-102.32Z"/>
  <path class="st0" d="M397.09,123.55c27.53,18.76,17.09,91.26,22.04,102.32.78,1.75,19.04,10.18,22.09,13.79-33.47,33.68-46.39,38.96-92.88,23.2,22.77-32.1,25.42-73.7,5.34-107.99,12.08-13.93,26.98-23.35,43.42-31.32Z"/>
  <path class="st3" d="M88.24,344.16c-22.77-9.69-43.35-23.08-58.71-42.5v-7.88c23.37-27.61,56.55-47.11,91.99-54.25,1.02.24,10.22,13.96,13.17,16.39l2.84,4.58c-14.63,27.81-29.27,55.61-43.9,83.42l-5.38.25Z"/>
  <path class="st3" d="M506.23,344.16l-4.84.78c-29.63-56.3-44.45-84.45-44.45-84.45l2.84-4.58c2.95-2.44,12.15-16.15,13.17-16.39,35.44,7.14,68.62,26.64,91.99,54.25v7.88c-15.37,19.42-35.95,32.81-58.71,42.5Z"/>
  <path class="st0" d="M339.03,79.43c7.12,13.92,14.72,26.48,16.39,42.56-22.48,27.9-32.12,3.49-59.23,3.86-26.45.36-34.5,23.88-57.16-3.86,1.67-16.08,9.27-28.64,16.39-42.56,20.43-15.51,63.38-15.47,83.6,0Z"/>
  <path class="st11" d="M202.02,378.99c-8.94,15.86-14.63,37.14-25.56,52.23-8.26,11.41-65.51,75.58-76.12,41.29-6.41-20.72,35.14-47.61,46.93-65.84,8.43-13.03,12.71-30.03,19.92-43.94l34.83,16.26Z"/>
  <path class="st9" d="M392.44,378.99l34.83-16.26c7.2,13.91,11.49,30.92,19.92,43.94,11.79,18.22,53.33,45.11,46.93,65.84-10.6,34.29-67.86-29.88-76.12-41.29-11.26-15.55-16.29-35.76-25.56-52.23Z"/>
  <path class="st0" d="M88.24,344.16l46.44-88.24c14.31,11.83,28.19,23.83,44.07,33.67l-33.62,66.17c-10.8,8.67-45.42-6.72-56.9-11.6Z"/>
  <path class="st0" d="M459.78,255.92l46.44,88.24c-11.48,4.88-46.1,20.27-56.9,11.6l-33.62-66.17c15.88-9.84,29.76-21.84,44.07-33.67Z"/>
  <path class="st12" d="M339.03,79.43c-28.93-8.4-54.68-8.4-83.6,0,5.61-10.96,29.12-51.45,42.6-50.58,19.26,11.09,31.16,31.36,41,50.58Z"/>
  <path class="st10" d="M343.68,539.22v32.51c-15.47-.35-69.92,6.78-72.03-12.87,2.79-26.08,51.17-17.57,72.03-19.64Z"/>
  <polygon class="st7" points="215.96 454.46 176.48 464.88 215.96 409.18 215.96 454.46"/>
  <polygon class="st7" points="378.51 409.18 415.69 463.72 378.51 454.46 378.51 409.18"/>
</svg>