<?xml version="1.0" encoding="UTF-8"?>
<svg id="Ebene_1" xmlns="http://www.w3.org/2000/svg" version="1.1" viewBox="0 0 915.22 795.45">
  <!-- Generator: Adobe Illustrator 29.0.1, SVG Export Plug-In . SVG Version: 2.1.0 Build 192)  -->
  <defs>
    <style>
      .st0 {
        fill: #d1dbfc;
      }

      .st1 {
        fill: #6864f6;
      }

      .st2 {
        fill: #6966f6;
      }

      .st3 {
        fill: #052a75;
      }

      .st4 {
        fill: #bb99f3;
      }

      .st5 {
        fill: #fcdfbd;
      }

      .st6 {
        fill: #fefefe;
      }

      .st7 {
        fill: #6a66f6;
      }

      .st8 {
        fill: #fc6050;
      }
    </style>
  </defs>
  <path class="st1" d="M32.64,597.75c-2.32-2.28-36.65,7.82-32.26-19.35,3.23-19.98,29.79-10.31,32.26-12.74,1.41-1.39-3.64-30.55,13.28-35.24,28.7-7.96,19.52,29.16,25.74,33.68,7.6,5.51,28.69-6.04,31.74,14.88,3.87,26.57-28.19,14.78-33.52,22.13-5.49,7.56,5.99,28.78-14.88,31.74-27.12,3.85-20.67-33.44-22.35-35.09Z"/>
  <path class="st7" d="M869.35,86.06c-23.35-23.42,36.86-47.24,45-17.9,7.4,26.67-34.87,28.06-45,17.9Z"/>
  <path class="st2" d="M831.57,1.87c31.26-12.23,34.4,39.14,16.4,45.23-28.05,9.5-34.42-38.18-16.4-45.23Z"/>
  <path class="st7" d="M781.77,55.58c38.67-9.23,49.37,42.98,2.56,35.19-23.44-3.9-23.37-30.23-2.56-35.19Z"/>
  <path class="st7" d="M831.57,101.89c31.26-12.23,34.4,39.14,16.4,45.23-28.05,9.5-34.42-38.18-16.4-45.23Z"/>
  <path class="st3" d="M572.81,68.32c2.85,3.04,72.67,31.97,76.82,32.33,18.75,1.63,28.68-23.86,50.8-15.38,6.73,2.58,99.49,95.13,101.96,101.91,7.12,19.52-16.62,30.39-16.04,47.77.15,4.51,32.06,79.77,35.79,82.3,12.17,8.27,35.99-.32,41.93,22.36,2.8,10.71,2.8,127.01,0,137.73-6.29,24.08-36.56,13.66-48.51,30.07-2.36,3.24-29.03,70.59-29.19,74.59-.77,18.46,22.9,29.02,16.02,47.79-2.39,6.53-90.57,96.83-96.91,99.69-28.84,12.99-36.97-13.62-52.53-13-4.21.17-74.89,28.79-78.28,31.3-10.23,7.56-6.16,40.77-19.38,45.84-6.94,2.66-141.49,2.26-148.67-.12-16.79-5.58-11.84-35.38-20.41-43.88-3-2.98-73.5-32.9-77.7-33.41-13.38-1.64-28.9,23.81-50.73,15.48-6.62-2.52-96.91-94.08-99.75-100.57-7.76-17.74,11.82-32.55,16.85-48.75-14.97-9.56-28-75.79-32.21-80.33-6.37-6.87-42.31-.72-48.53-24.7-2.72-10.47-2.75-127.7,0-137.72,6.24-22.63,41.42-16.29,48.47-24.79,2.73-3.29,31.49-75.31,31.49-79.59.02-14.69-25.41-28.36-16.1-49.41,2.87-6.48,93.15-98.04,99.77-100.57,22.31-8.55,31.39,17.94,53.41,14.54,4.04-.62,72.29-29.42,75.05-32.44,11.82-12.91-.78-39.41,26.62-44.82,9.81-1.94,132.15-1.28,138.74.9,16.44,5.44,13.85,37.02,21.22,44.87Z"/>
  <path class="st1" d="M443.38,58.44c2.46,1.36,6,3.82,5.37,5.69-4.87,14.6-35.21,91.2-41.84,98.49l-9.75,7.19-7.24,10.27c-289.34,127.08-140.83,547.33,165.09,462.75l12.7,3.15c14.2-1.29,53.7,19,64.19,28.84l.77,8.7c-17.35,20.51-68.38,23.85-84.1,35.56-14.59,10.88-9.07,36.98-21.16,39.71-6.92,1.56-97.36,2.26-101.52-.66-1.69-1.19-4.36-32.52-13.56-39.14-5.89-4.24-39.4-10.85-51.05-15.89-10.61-4.59-46.39-26.14-52.23-26.76-14.59-1.55-31.75,18.81-40.79,16.2-4.74-1.37-68.18-65.17-69.74-69.85-3.66-10.93,15.9-28.87,15.38-40.37-.73-15.86-44.35-77.76-42.41-103.76-4.96-13.79-39.48-10.7-42.6-18.89-1.76-4.62-1-94.16.77-98.77,4.6-12,30.22-7.49,40.45-20.27,12.76-15.93,22.72-82.88,43.26-103.41,3.02-14.62-19.68-29.59-14.83-42.88,1.69-4.64,64.98-68.48,69.72-69.85,10.14-2.94,31.51,24.92,46.61,14.56,18.58-21.86,82.57-28.67,97.78-41.63,20.75-17.67-6.31-35.41,30.7-38.95Z"/>
  <path class="st4" d="M443.38,58.44c10.36-.99,85.01-1.83,88.78.5,3.61,2.24,5.35,32.16,13.69,39.05,5.27,4.35,46.93,15.11,58.19,19.45,11.62,4.49,34.57,21.21,42.03,22.53,20.71,3.67,35.85-17.88,43.83-15.59,4.87,1.4,69.79,67.4,70.86,72.35,2.47,11.5-15.73,20.93-13.67,41.7.54,5.47,37.76,97.67,41.13,102.02,9.8,12.65,39.05,11.34,41.13,16.68,1.86,4.77,1.61,97.66-.07,102.51-2.45,7.09-37.53,6.69-42.35,19.15,1.85,29.04-37.74,79.18-39.84,99.74s17.5,29.7,12.5,44.09c-1.62,4.66-64.94,68.5-69.68,69.88-10.05,2.92-35.65-29.45-57.23-8.99l-64.97-37.53,6.97-10.44c280.99-130.51,133.77-539.86-165.63-462.06l-11.89-3.67,46.21-111.37Z"/>
  <g>
    <path class="st3" d="M567.72,645.97c-85.38,31.78-181.25,15.18-250.98-43.45-69.73-58.63-102.54-150.23-85.89-239.8,16.65-89.57,80.18-163.26,166.32-192.92,130.92-45.08,273.75,23.5,320.44,153.85,46.69,130.35-20.12,274.02-149.89,322.31Z"/>
    <path class="st6" d="M389.8,212.02c205.58-88.52,392.82,140.92,267.28,322.64-38.08,55.12-25.54,31.15-43.9-1.32-5.57-9.85-15.86-25.76-23.41-33.74-10.83-11.46-44.97-28.08-46.37-30.47-1.89-3.22,23.96-30.97,28.08-41.5,49.11-125.35-125.25-196.42-181.68-90.6-9.56-3.42-14.23-12.66-14.02-27.72-4.24-27.45-3.52-76.55,14.02-97.29Z"/>
    <path class="st0" d="M389.8,212.02c-7.84,38.23-14.1,88.46,0,125.01-17.75,33.29-18.28,60.09-3.12,94.2,3.8,8.56,26.19,34.23,24.52,37.88-1.3,2.84-37.59,22.87-49.88,37.67-7.32,8.82-15.59,22.29-21.07,32.51-12.65,23.62-.87,41-32.51,3.02-88.49-106.21-42.85-276.51,82.06-330.3Z"/>
    <path class="st8" d="M471.34,488c40.25-2.07,83.66,19.46,104.88,53.72,33.66,54.34,9.71,65.67-44.84,77.99-43.56,9.84-75.76,8.59-118.43-4.02-39.51-11.68-57.77-15.16-41.66-56.05,15.88-40.3,56.71-69.42,100.04-71.64Z"/>
    <circle class="st5" cx="478.06" cy="386.9" r="65.87"/>
  </g>
</svg>