<svg height="512" viewBox="0 0 58 58" width="512" xmlns="http://www.w3.org/2000/svg"><g id="Page-1" fill="none" fill-rule="evenodd"><g id="008---Search-Website" fill-rule="nonzero"><path id="Shape" d="m58 14v38c0 2.209139-1.790861 4-4 4h-50c-2.209139 0-4-1.790861-4-4v-38z" fill="#ecf0f1"/><path id="Shape" d="m58 10v4h-58v-10h25c1.1032019.0032948 1.9967052.89679813 2 2v2c.0032948 1.10320187.8967981 1.9967052 2 2z" fill="#3b97d3"/><path id="Shape" d="m58 4v6h-29c-1.1032019-.0032948-1.9967052-.89679813-2-2v-2c-.0032948-1.10320187-.8967981-1.9967052-2-2h-25c0-2.209139 1.790861-4 4-4h50c2.209139 0 4 1.790861 4 4z" fill="#285680"/><path id="Shape" d="m16 10h-11c-.55228475 0-1-.44771525-1-1s.44771525-1 1-1h11c.5522847 0 1 .44771525 1 1s-.4477153 1-1 1z" fill="#ecf0f1"/><path id="Shape" d="m23.414 9 .293-.293c.3789722-.39237889.3735524-1.01608478-.0121814-1.40181858-.3857338-.38573379-1.0094397-.39115363-1.4018186-.01218142l-.293.293-.293-.293c-.3923789-.37897221-1.0160848-.37355237-1.4018186.01218142-.3857338.3857338-.3911536 1.00943969-.0121814 1.40181858l.293.293-.293.293c-.2599566.25107447-.3642126.62287789-.2726972.9725073.0915155.3496295.3645604.6226744.7141899.7141899.3496294.0915154.7214328-.0127406.9725073-.2726972l.293-.293.293.293c.3923789.3789722 1.0160848.3735524 1.4018186-.0121814s.3911536-1.00943971.0121814-1.4018186z" fill="#285680"/><circle id="Oval" cx="52" cy="5" fill="#e64c3c" r="1"/><circle id="Oval" cx="48" cy="5" fill="#f0c419" r="1"/><circle id="Oval" cx="44" cy="5" fill="#24ae5f" r="1"/><path id="Shape" d="m38.951 44.71 8.171 8.178c1.1374842 1.1765986 1.1221128 3.0477341-.0345482 4.2054863-1.1566609 1.1577521-3.0277811 1.1748879-4.2054518.0385137l-8.172-8.178z" fill="#7f8c8d"/><path id="Shape" d="m40.91 29h10.09c1.1032019-.0032948 1.9967052-.8967981 2-2v-5c-.0032948-1.1032019-.8967981-1.9967052-2-2h-44c-1.10320187.0032948-1.9967052.8967981-2 2v5c.0032948 1.1032019.89679813 1.9967052 2 2z" fill="#bdc3c7"/><circle id="Oval" cx="25" cy="35" fill="#95a5a5" r="17"/><path id="Shape" d="m38 35c-.0049685 6.4675593-4.7635584 11.9478742-11.1664687 12.8600628-6.4029103.9121885-12.5026207-3.0212021-14.3135313-9.2300628-.3467679-1.1787471-.5219003-2.4013059-.52-3.63.0000001-7.1797017 5.8202983-12.9999998 13-12.9999998s12.9999999 5.8202981 13 12.9999998z" fill="#90bae1"/><path id="Shape" d="m33 28c-.0009251 4.852423-2.7042709 9.3004232-7.0111081 11.5358567-4.3068371 2.2354335-9.5001778 1.886153-13.4688919-.9058567-.3467679-1.1787471-.5219003-2.4013059-.52-3.63.0009251-4.852423 2.7042709-9.3004232 7.0111081-11.5358567 4.3068371-2.2354335 9.5001778-1.886153 13.4688919.9058567.3467679 1.1787471.5219003 2.4013059.52 3.63z" fill="#b0d3f0"/></g></g></svg>