<?xml version="1.0" encoding="UTF-8"?>
<svg id="Ebene_1" xmlns="http://www.w3.org/2000/svg" version="1.1" viewBox="0 0 525 640.2">
  <!-- Generator: Adobe Illustrator 29.0.1, SVG Export Plug-In . SVG Version: 2.1.0 Build 192)  -->
  <defs>
    <style>
      .st0 {
        fill: #6663f4;
      }

      .st1 {
        fill: #fc6250;
      }

      .st2 {
        fill: #d0dafb;
      }

      .st3 {
        fill: #fac950;
      }

      .st4 {
        fill: #b998f1;
      }

      .st5 {
        fill: #fefdfd;
      }

      .st6 {
        fill: #092d76;
      }

      .st7 {
        fill: #092d77;
      }

      .st8 {
        fill: #fc6253;
      }

      .st9 {
        fill: #fdfdfd;
      }
    </style>
  </defs>
  <path class="st7" d="M258.22.36c3.11-.58,6.21-.43,9.29.24,10.48,2.28,38.73,18.91,52,24,40.11,15.4,88.52,26.82,131.5,29.5,16.81,1.05,47.83-2.64,61.73.27,6.06,1.27,10.27,7.14,9.78,13.22-5.99,119.44,7.83,246.51,0,365.08-9.39,142.15-152.3,165.19-259.52,207.54C155.94,598.62,11.7,574.75,2.44,432.67c-7.73-118.64,5.94-245.6,0-365.09-.38-6.67,3.91-12.16,10.64-13.36,14.92-2.67,43.48.95,60.87-.13,43.01-2.65,92.19-14.2,132.31-29.69,12.36-4.77,42.72-22.31,51.95-24.04ZM179.49,60.12c-48.93,14.56-99.66,22.08-151.01,19.99l-.03,356.54c13.24,122.22,142.82,137.34,234.36,177.22,28.15-10.24,55.83-21.76,83.67-32.75,75.12-29.65,138.92-52.2,150.05-145.45l-.04-355.55c-63.12,1.96-126.48-8.72-185.27-31.23-7.33-2.81-45.68-21.69-48.33-21.77s-41.9,18.99-49.14,21.77c-11.27,4.32-22.7,7.8-34.26,11.24Z"/>
  <path class="st4" d="M179.49,60.12c11.56-3.44,22.99-6.92,34.26-11.24,7.24-2.78,46.46-21.86,49.14-21.77s41,18.96,48.33,21.77c58.78,22.51,122.14,33.2,185.27,31.23l.04,355.55c-11.13,93.26-74.93,115.8-150.05,145.45l-30-22c65.5-24.4,140.86-45.28,148.03-128.47l-.51-310.56c-1.66-4.92-5.48-7.49-10.46-8.54-17.27-3.65-41.22-3.45-60.26-6.74-26.65-4.59-53.81-11.86-79.34-20.66-9.78-3.38-44.63-19.96-51-20.08-6.13-.12-43.65,17.22-53.44,20.57-14.01,4.8-27.7,7.92-42.03,11.47l12-36Z"/>
  <path class="st0" d="M167.49,96.12c-11.97,2.97-23.54,6.59-35.8,8.7-19.02,3.26-42.95,3.07-60.26,6.74-5.35,1.13-9.16,3.95-10.69,9.31l-.29,308.81c8.26,104.22,125.16,114.28,200.82,149.27,18.82-5.29,36.94-13,55.23-19.82l30,22c-27.84,10.99-55.52,22.51-83.67,32.75-91.54-39.88-221.12-55.01-234.36-177.22l.03-356.54c51.34,2.08,102.08-5.43,151.01-19.99l-12,36Z"/>
  <path class="st7" d="M316.49,559.12c-18.29,6.81-36.41,14.53-55.23,19.82-75.66-34.99-192.56-45.05-200.82-149.27l.29-308.81c1.53-5.35,5.34-8.17,10.69-9.31,17.32-3.66,41.24-3.47,60.26-6.74,12.26-2.1,23.83-5.73,35.8-8.7,14.32-3.56,28.02-6.68,42.03-11.47,9.79-3.35,47.3-20.69,53.44-20.57,6.37.12,41.22,16.7,51,20.08,25.52,8.81,52.68,16.07,79.34,20.66,19.05,3.28,43,3.08,60.26,6.74,4.98,1.05,8.79,3.63,10.46,8.54l.51,310.56c-7.17,83.19-82.54,104.07-148.03,128.47ZM158.49,125.12c-24.14,5.26-48.61,8.26-73.06,11.63v288.92c6.24,88.98,112.51,95.05,175.84,126.26,10.96-1.08,21.44-8.29,31.22-11.81,58.45-21.05,143.04-38.21,147.05-114.45V136.76c-45.38-4.86-88.75-13.87-132-28.18-7.91-2.62-40.37-17.38-44.58-17.52-3.68-.12-38.68,15.27-46.27,17.77-19.08,6.29-38.56,12.02-58.2,16.3Z"/>
  <path class="st9" d="M158.49,125.12c19.64-4.28,39.12-10.01,58.2-16.3,7.59-2.5,42.59-17.9,46.27-17.77,4.2.14,36.67,14.9,44.58,17.52,43.25,14.31,86.62,23.32,132.01,28.18v288.92c-4.02,76.24-88.61,93.4-147.06,114.45-24.45-19.55-46.29-43.17-64-69,46.74,1.03,138.02,16.68,144.03-47.47,2.75-29.29,3.09-98.03-.16-126.9-2.11-18.71-15.87-36.8-33.87-42.63.73-32.9,3.04-62.57-22.12-87.38-33.82-33.35-91.78-27.71-117.72,12.05-15.61,23.93-12.04,48.12-12.17,75.33-16.11,5.28-30.07,21.42-33,38-11.37-54.79-7.2-112.69,5-167Z"/>
  <path class="st2" d="M158.49,125.12c-12.2,54.31-16.37,112.21-5,167-4.36,24.66-3.51,105.08-1.03,131.53,4.34,46.32,40.14,46.68,76.03,47.47,17.71,25.83,39.55,49.45,64,69-9.78,3.52-20.27,10.73-31.22,11.81-63.32-31.21-169.59-37.28-175.83-126.26V136.76c24.44-3.37,48.91-6.38,73.05-11.63Z"/>
  <path class="st6" d="M211.49,251.12c31.8-1.39,70.21-1.39,102,0,9.86.43,15.22-.17,25,3,18,5.83,31.76,23.92,33.87,42.63,3.25,28.87,2.91,97.61.16,126.9-6.01,64.15-97.3,48.5-144.03,47.47-35.9-.79-71.69-1.15-76.03-47.47-2.48-26.45-3.33-106.87,1.03-131.53,2.93-16.58,16.89-32.72,33-38,9.73-3.19,15.18-2.57,25-3ZM200.25,276.39c-12.21,1.91-20.99,11.18-22.65,23.35-3.25,23.89-2.69,96.2-.15,120.91,1.02,9.93,5.86,19.59,15.63,23.37s113.48,3.77,128.93,2.13c9.65-1.03,19.63-5.97,23.37-15.63s3.82-113.87,2.13-128.93c-1.59-14.16-10.07-23.62-24.55-25.45-21.02-2.65-102.42-2.94-122.71.24Z"/>
  <path class="st8" d="M338.49,254.12c-9.78-3.17-15.14-2.57-25-3,4.19-34.95-3.73-77.96-46.46-81.04-47.79-3.45-61.08,41.78-55.54,81.04-9.82.43-15.27-.19-25,3,.13-27.21-3.44-51.4,12.17-75.33,25.93-39.76,83.89-45.4,117.72-12.05,25.16,24.81,22.85,54.48,22.12,87.38Z"/>
  <path class="st3" d="M200.25,276.39c20.29-3.18,101.69-2.89,122.71-.24,14.48,1.83,22.97,11.28,24.55,25.45,1.69,15.06,1.58,119.34-2.13,128.93s-13.72,14.6-23.37,15.63c-15.45,1.64-119.12,1.68-128.93-2.13s-14.61-13.45-15.63-23.37c-2.54-24.71-3.11-97.02.15-120.91,1.66-12.17,10.44-21.44,22.65-23.35ZM275.49,360.12c14.23,5.21,26.66-13.31,14.95-22.45-4.33-3.38-41.45-3.54-48.51-2.6-9.16,1.23-13.06,7.39-11.21,16.32,2.57,12.38,18.76,7.6,18.76,8.73v21.5c0,15.66,26,15.65,26,0v-21.5Z"/>
  <path class="st5" d="M313.49,251.12c-31.79-1.39-70.2-1.39-102,0-5.53-39.26,7.75-84.49,55.54-81.04,42.72,3.08,50.65,46.09,46.46,81.04Z"/>
  <path class="st1" d="M275.49,360.12v21.5c0,15.65-26,15.66-26,0v-21.5c0-1.14-16.19,3.65-18.76-8.73-1.85-8.93,2.05-15.09,11.21-16.32,7.06-.95,44.18-.79,48.51,2.6,11.71,9.15-.73,27.66-14.95,22.45Z"/>
</svg>